<svg xmlns="http://www.w3.org/2000/svg" viewBox="-120 -80 240 270">
  <defs>
    <linearGradient id="wood" x1="0" y1="-62" x2="0" y2="63" gradientUnits="userSpaceOnUse">
      <stop offset="0" stop-color="#c87a36"/>
      <stop offset="0.55" stop-color="#a85f29"/>
      <stop offset="1" stop-color="#7e421c"/>
    </linearGradient>
  </defs>
  <g transform="rotate(27) translate(0,96)"><g class="violin">
  <!-- strings (behind, extend over fingerboard) -->
  <g stroke="#efe3cf" stroke-width="0.9" opacity="0.9">
    <line x1="-2.4" y1="55" x2="-2.4" y2="-118"/>
    <line x1="-0.8" y1="55" x2="-0.8" y2="-118"/>
    <line x1="0.8"  y1="55" x2="0.8"  y2="-118"/>
    <line x1="2.4"  y1="55" x2="2.4"  y2="-118"/>
  </g>
  <!-- neck -->
  <rect x="-7" y="-122" width="14" height="62" rx="3" fill="#8a4f24"/>
  <!-- fingerboard -->
  <rect x="-5.5" y="-122" width="11" height="62" rx="2.5" fill="#241710"/>
  <!-- scroll / pegbox -->
  <path d="M0,-122 C-9,-122 -11,-132 -8,-140 C-6,-146 2,-148 6,-143
           C9,-139 8,-133 3,-132 C-1,-131 -2,-135 1,-137"
        fill="none" stroke="#8a4f24" stroke-width="3.4" stroke-linecap="round"/>
  <circle cx="0.5" cy="-136" r="1.7" fill="#8a4f24"/>
  <!-- body -->
  <path d="M0,-62 C24,-62 34,-50 34,-34 C34,-22 27,-15 23,-10
           C30,-5 37,6 37,22 C37,46 21,63 0,63
           C-21,63 -37,46 -37,22 C-37,6 -30,-5 -23,-10
           C-27,-15 -34,-22 -34,-34 C-34,-50 -24,-62 0,-62 Z"
        fill="url(#wood)" stroke="#5c3417" stroke-width="2"/>
  <!-- f-holes -->
  <g fill="#33200f">
    <path d="M-15,-6 C-19,-2 -18,8 -14,12 C-17,9 -17,2 -14,0
             C-12,-1 -12,-4 -15,-6 Z"/>
    <path d="M15,-6 C19,-2 18,8 14,12 C17,9 17,2 14,0
             C12,-1 12,-4 15,-6 Z"/>
    <circle cx="-16.5" cy="-5" r="1.4"/><circle cx="-13" cy="13" r="1.4"/>
    <circle cx="16.5" cy="-5" r="1.4"/><circle cx="13" cy="13" r="1.4"/>
  </g>
  <!-- bridge -->
  <path d="M-9,30 L9,30 L6,36 L-6,36 Z" fill="#caa15f"/>
  <!-- tailpiece -->
  <path d="M0,40 C4,40 5,46 4,54 C3,60 1,62 0,62 C-1,62 -3,60 -4,54 C-5,46 -4,40 0,40 Z" fill="#241710"/>
</g>
</g>
  <g transform="rotate(-27) translate(0,96)"><g class="violin">
  <!-- strings (behind, extend over fingerboard) -->
  <g stroke="#efe3cf" stroke-width="0.9" opacity="0.9">
    <line x1="-2.4" y1="55" x2="-2.4" y2="-118"/>
    <line x1="-0.8" y1="55" x2="-0.8" y2="-118"/>
    <line x1="0.8"  y1="55" x2="0.8"  y2="-118"/>
    <line x1="2.4"  y1="55" x2="2.4"  y2="-118"/>
  </g>
  <!-- neck -->
  <rect x="-7" y="-122" width="14" height="62" rx="3" fill="#8a4f24"/>
  <!-- fingerboard -->
  <rect x="-5.5" y="-122" width="11" height="62" rx="2.5" fill="#241710"/>
  <!-- scroll / pegbox -->
  <path d="M0,-122 C-9,-122 -11,-132 -8,-140 C-6,-146 2,-148 6,-143
           C9,-139 8,-133 3,-132 C-1,-131 -2,-135 1,-137"
        fill="none" stroke="#8a4f24" stroke-width="3.4" stroke-linecap="round"/>
  <circle cx="0.5" cy="-136" r="1.7" fill="#8a4f24"/>
  <!-- body -->
  <path d="M0,-62 C24,-62 34,-50 34,-34 C34,-22 27,-15 23,-10
           C30,-5 37,6 37,22 C37,46 21,63 0,63
           C-21,63 -37,46 -37,22 C-37,6 -30,-5 -23,-10
           C-27,-15 -34,-22 -34,-34 C-34,-50 -24,-62 0,-62 Z"
        fill="url(#wood)" stroke="#5c3417" stroke-width="2"/>
  <!-- f-holes -->
  <g fill="#33200f">
    <path d="M-15,-6 C-19,-2 -18,8 -14,12 C-17,9 -17,2 -14,0
             C-12,-1 -12,-4 -15,-6 Z"/>
    <path d="M15,-6 C19,-2 18,8 14,12 C17,9 17,2 14,0
             C12,-1 12,-4 15,-6 Z"/>
    <circle cx="-16.5" cy="-5" r="1.4"/><circle cx="-13" cy="13" r="1.4"/>
    <circle cx="16.5" cy="-5" r="1.4"/><circle cx="13" cy="13" r="1.4"/>
  </g>
  <!-- bridge -->
  <path d="M-9,30 L9,30 L6,36 L-6,36 Z" fill="#caa15f"/>
  <!-- tailpiece -->
  <path d="M0,40 C4,40 5,46 4,54 C3,60 1,62 0,62 C-1,62 -3,60 -4,54 C-5,46 -4,40 0,40 Z" fill="#241710"/>
</g>
</g>
</svg>